<svg width="160" height="160" viewBox="0 0 160 160" fill="none" xmlns="http://www.w3.org/2000/svg">
<path d="M80.625 105.156C80.625 105.844 81.1563 106.406 81.7969 106.406H110.703C111.344 106.406 111.875 105.844 111.875 105.156V97.6562C111.875 96.9687 111.344 96.4062 110.703 96.4062H81.7969C81.1563 96.4062 80.625 96.9687 80.625 97.6562V105.156ZM50.1719 106.109L80.1719 80.9531C80.7656 80.4531 80.7656 79.5312 80.1719 79.0312L50.1719 53.8906C49.9908 53.7366 49.7693 53.6378 49.5337 53.6059C49.2981 53.5741 49.0583 53.6105 48.8428 53.7108C48.6273 53.8112 48.4451 53.9713 48.3179 54.1721C48.1906 54.3729 48.1237 54.606 48.125 54.8438V64.6406C48.125 65.0156 48.2812 65.3594 48.5781 65.5937L65.7344 80L48.5781 94.4063C48.4385 94.5232 48.3257 94.6688 48.2475 94.8333C48.1693 94.9978 48.1275 95.1773 48.125 95.3594V105.156C48.125 106.219 49.3594 106.797 50.1719 106.109ZM137.5 17.5H22.5C19.7344 17.5 17.5 19.7344 17.5 22.5V137.5C17.5 140.266 19.7344 142.5 22.5 142.5H137.5C140.266 142.5 142.5 140.266 142.5 137.5V22.5C142.5 19.7344 140.266 17.5 137.5 17.5ZM131.25 131.25H28.75V28.75H131.25V131.25Z" fill="hsl(210, 8%, 87%)"/>
</svg>
