<svg width="120" height="120" viewBox="0 0 120 120" fill="none" xmlns="http://www.w3.org/2000/svg">
    <path fill-rule="evenodd" clip-rule="evenodd"
        d="M71.2127 15.1495C73.8917 15.8192 75.5205 18.5339 74.8507 21.2129L54.8507 101.213C54.181 103.892 51.4663 105.521 48.7873 104.851C46.1083 104.181 44.4795 101.467 45.1493 98.7875L65.1493 18.7875C65.819 16.1086 68.5337 14.4797 71.2127 15.1495ZM38.5355 36.4647C40.4882 38.4173 40.4882 41.5831 38.5355 43.5357L22.0711 60.0002L38.5355 76.4647C40.4882 78.4173 40.4882 81.5831 38.5355 83.5357C36.5829 85.4884 33.4171 85.4884 31.4645 83.5357L11.4645 63.5357C9.51184 61.5831 9.51184 58.4173 11.4645 56.4647L31.4645 36.4647C33.4171 34.5121 36.5829 34.5121 38.5355 36.4647ZM81.4645 36.4647C83.4171 34.5121 86.5829 34.5121 88.5355 36.4647L108.536 56.4647C110.488 58.4173 110.488 61.5831 108.536 63.5357L88.5355 83.5357C86.5829 85.4884 83.4171 85.4884 81.4645 83.5357C79.5118 81.5831 79.5118 78.4173 81.4645 76.4647L97.9289 60.0002L81.4645 43.5357C79.5118 41.5831 79.5118 38.4173 81.4645 36.4647Z"
        fill="rgba(255,255,255, 0.87)" />
</svg>